<?xml version="1.0" standalone="no"?>
<!DOCTYPE svg PUBLIC "-//W3C//DTD SVG 20010904//EN"
 "http://www.w3.org/TR/2001/REC-SVG-20010904/DTD/svg10.dtd">
<svg version="1.0" xmlns="http://www.w3.org/2000/svg"
 width="1500.000000pt" height="1500.000000pt" viewBox="0 0 1500.000000 1500.000000"
 preserveAspectRatio="xMidYMid meet">

<g transform="translate(0.000000,1500.000000) scale(0.100000,-0.100000)"
fill="#000000" stroke="none">
<path d="M3170 11400 l0 -780 260 0 260 0 0 520 0 520 4160 0 4160 0 0 -4155
0 -4155 -4160 0 -4160 0 0 520 0 520 -260 0 -260 0 0 -780 0 -780 4680 0 4680
0 0 4675 0 4675 -4680 0 -4680 0 0 -780z"/>
<path d="M4930 7505 l0 -2895 510 0 510 0 0 1255 0 1255 1550 0 1550 0 0
-1255 0 -1255 510 0 510 0 0 2895 0 2895 -510 0 -510 0 0 -1165 0 -1165 -1550
0 -1550 0 0 1165 0 1165 -510 0 -510 0 0 -2895z"/>
</g>
</svg>
